<svg width="1600" height="900" viewBox="0 0 1600 900" fill="none" xmlns="http://www.w3.org/2000/svg">
  <defs>
    <linearGradient id="auroraNight" x1="800" y1="0" x2="800" y2="900" gradientUnits="userSpaceOnUse">
      <stop offset="0" stop-color="#060F1C"/>
      <stop offset="0.38" stop-color="#081422"/>
      <stop offset="0.68" stop-color="#0B1C2C"/>
      <stop offset="1" stop-color="#0E2230"/>
    </linearGradient>
    <linearGradient id="auroraA" x1="260" y1="134" x2="1210" y2="450" gradientUnits="userSpaceOnUse">
      <stop offset="0" stop-color="#3EDBC6" stop-opacity="0"/>
      <stop offset="0.18" stop-color="#3EDBC6" stop-opacity="0.30"/>
      <stop offset="0.50" stop-color="#7AF6C0" stop-opacity="0.58"/>
      <stop offset="0.80" stop-color="#7AF6C0" stop-opacity="0.26"/>
      <stop offset="1" stop-color="#7AF6C0" stop-opacity="0"/>
    </linearGradient>
    <linearGradient id="auroraB" x1="380" y1="72" x2="1340" y2="336" gradientUnits="userSpaceOnUse">
      <stop offset="0" stop-color="#90DEFF" stop-opacity="0"/>
      <stop offset="0.28" stop-color="#90DEFF" stop-opacity="0.22"/>
      <stop offset="0.58" stop-color="#B4F8E4" stop-opacity="0.38"/>
      <stop offset="0.82" stop-color="#B4F8E4" stop-opacity="0.16"/>
      <stop offset="1" stop-color="#B4F8E4" stop-opacity="0"/>
    </linearGradient>
    <linearGradient id="auroraC" x1="140" y1="210" x2="1020" y2="510" gradientUnits="userSpaceOnUse">
      <stop offset="0" stop-color="#CC68FF" stop-opacity="0"/>
      <stop offset="0.32" stop-color="#CC68FF" stop-opacity="0.14"/>
      <stop offset="0.62" stop-color="#7AE4CC" stop-opacity="0.22"/>
      <stop offset="1" stop-color="#7AE4CC" stop-opacity="0"/>
    </linearGradient>
  </defs>
  <rect width="1600" height="900" fill="url(#auroraNight)"/>
  <!-- Three aurora bands -->
  <path d="M50 318C262 222 498 162 748 164C990 166 1228 232 1498 358L1378 466C1148 358 952 306 742 302C516 298 304 352 108 446L50 318Z" fill="url(#auroraA)"/>
  <path d="M158 208C346 130 548 90 762 98C972 106 1182 164 1432 272L1354 372C1122 278 962 236 768 228C570 220 398 260 228 342L158 208Z" fill="url(#auroraB)"/>
  <path d="M0 364C196 278 390 240 590 250C790 260 974 322 1200 434L1126 522C916 424 758 370 580 364C382 358 204 402 30 480L0 364Z" fill="url(#auroraC)"/>
  <!-- Stars (30) -->
  <g fill="#E4F2FF" fill-opacity="0.76">
    <circle cx="128" cy="80" r="1.6"/>
    <circle cx="214" cy="146" r="1.3"/>
    <circle cx="308" cy="62" r="1.8"/>
    <circle cx="424" cy="106" r="1.4"/>
    <circle cx="552" cy="76" r="1.6"/>
    <circle cx="668" cy="122" r="1.2"/>
    <circle cx="782" cy="70" r="1.5"/>
    <circle cx="906" cy="94" r="1.7"/>
    <circle cx="1020" cy="64" r="1.4"/>
    <circle cx="1150" cy="110" r="1.6"/>
    <circle cx="1278" cy="78" r="1.3"/>
    <circle cx="1396" cy="116" r="1.8"/>
    <circle cx="1516" cy="84" r="1.5"/>
    <circle cx="76" cy="190" r="1.3"/>
    <circle cx="250" cy="212" r="1.5"/>
    <circle cx="446" cy="180" r="1.2"/>
    <circle cx="598" cy="206" r="1.4"/>
    <circle cx="718" cy="186" r="1.6"/>
    <circle cx="864" cy="216" r="1.3"/>
    <circle cx="1018" cy="192" r="1.4"/>
    <circle cx="1184" cy="220" r="1.5"/>
    <circle cx="1344" cy="194" r="1.2"/>
    <circle cx="1480" cy="210" r="1.6"/>
    <circle cx="186" cy="266" r="1.4"/>
    <circle cx="396" cy="250" r="1.2"/>
    <circle cx="624" cy="272" r="1.5"/>
    <circle cx="858" cy="256" r="1.3"/>
    <circle cx="1094" cy="276" r="1.4"/>
    <circle cx="1308" cy="246" r="1.2"/>
    <circle cx="1548" cy="262" r="1.5"/>
  </g>
  <!-- Terrain layers (darkening toward foreground) -->
  <path d="M0 570C148 534 298 540 446 582C600 628 748 650 912 630C1086 610 1206 558 1356 546C1470 537 1558 550 1600 562V900H0V570Z" fill="#0D2132" fill-opacity="0.78"/>
  <path d="M0 664C142 638 298 658 448 714C610 772 762 792 936 778C1096 765 1218 716 1368 700C1462 688 1550 692 1600 708V900H0V664Z" fill="#08161E" fill-opacity="0.84"/>
  <path d="M0 766C158 750 304 768 440 814C584 862 724 878 888 866C1058 854 1186 808 1334 798C1432 790 1522 795 1600 808V900H0V766Z" fill="#050D14" fill-opacity="0.72"/>
</svg>
