<svg width="1600" height="900" viewBox="0 0 1600 900" fill="none" xmlns="http://www.w3.org/2000/svg">
  <defs>
    <linearGradient id="auroraSky" x1="800" y1="0" x2="800" y2="900" gradientUnits="userSpaceOnUse">
      <stop stop-color="#08111C"/>
      <stop offset="0.48" stop-color="#0A1930"/>
      <stop offset="1" stop-color="#112C35"/>
    </linearGradient>
    <linearGradient id="auroraArcA" x1="322" y1="176" x2="1144" y2="470" gradientUnits="userSpaceOnUse">
      <stop stop-color="#6BE7D0" stop-opacity="0"/>
      <stop offset="0.28" stop-color="#6BE7D0" stop-opacity="0.3"/>
      <stop offset="0.58" stop-color="#8DF4BE" stop-opacity="0.58"/>
      <stop offset="1" stop-color="#8DF4BE" stop-opacity="0"/>
    </linearGradient>
    <linearGradient id="auroraArcB" x1="455" y1="100" x2="1270" y2="378" gradientUnits="userSpaceOnUse">
      <stop stop-color="#99D7FF" stop-opacity="0"/>
      <stop offset="0.38" stop-color="#99D7FF" stop-opacity="0.24"/>
      <stop offset="0.68" stop-color="#84FFC7" stop-opacity="0.34"/>
      <stop offset="1" stop-color="#84FFC7" stop-opacity="0"/>
    </linearGradient>
  </defs>
  <rect width="1600" height="900" fill="url(#auroraSky)"/>
  <path d="M86 292C295 201 512 150 742 152C962 154 1181 215 1453 332L1340 430C1116 323 930 277 738 273C521 268 318 316 132 408L86 292Z" fill="url(#auroraArcA)"/>
  <path d="M202 195C379 117 562 84 751 93C938 102 1133 155 1380 253L1310 342C1087 252 935 213 757 206C574 199 419 236 260 312L202 195Z" fill="url(#auroraArcB)"/>
  <g fill="#F2F6FF" fill-opacity="0.75">
    <circle cx="160" cy="152" r="1.6"/>
    <circle cx="242" cy="206" r="1.2"/>
    <circle cx="364" cy="126" r="1.7"/>
    <circle cx="526" cy="188" r="1.4"/>
    <circle cx="698" cy="138" r="1.3"/>
    <circle cx="852" cy="186" r="1.7"/>
    <circle cx="1008" cy="134" r="1.2"/>
    <circle cx="1162" cy="188" r="1.8"/>
    <circle cx="1334" cy="154" r="1.3"/>
  </g>
  <path d="M0 582C132 548 255 554 389 598C547 650 695 671 850 650C1017 628 1135 570 1277 560C1398 552 1506 576 1600 612V900H0V582Z" fill="#142B30" fill-opacity="0.74"/>
  <path d="M0 676C135 650 286 676 426 732C583 796 731 812 894 790C1036 771 1154 725 1296 706C1413 691 1514 695 1600 712V900H0V676Z" fill="#0D1E24" fill-opacity="0.76"/>
</svg>