<svg width="1600" height="900" viewBox="0 0 1600 900" fill="none" xmlns="http://www.w3.org/2000/svg"><defs><linearGradient id="sky" x1="800" y1="0" x2="800" y2="900" gradientUnits="userSpaceOnUse"><stop offset="0%" stop-color="#141b25"/><stop offset="44%" stop-color="#1a2734"/><stop offset="100%" stop-color="#21303d"/></linearGradient><filter id="fb" x="-20%" y="-20%" width="140%" height="140%"><feGaussianBlur stdDeviation="34"/></filter><radialGradient id="mist" cx="0" cy="0" r="1" gradientUnits="userSpaceOnUse" gradientTransform="translate(800 314) rotate(90) scale(260 620)"><stop offset="0%" stop-color="#f6faf3" stop-opacity="0.10"/><stop offset="100%" stop-color="#f6faf3" stop-opacity="0"/></radialGradient></defs><rect width="1600" height="900" fill="url(#sky)"/><rect width="1600" height="900" fill="url(#mist)"/>
     <g filter="url(#fb)">
       <rect x="88" y="232" width="54" height="528" rx="26" fill="#4e6353"/><rect x="244" y="176" width="66" height="584" rx="28" fill="#4e6353"/><rect x="434" y="206" width="58" height="548" rx="26" fill="#4e6353"/><rect x="648" y="152" width="74" height="612" rx="30" fill="#4e6353"/><rect x="878" y="196" width="60" height="560" rx="28" fill="#4e6353"/><rect x="1094" y="172" width="70" height="588" rx="30" fill="#4e6353"/><rect x="1322" y="150" width="80" height="610" rx="32" fill="#4e6353"/>
       <ellipse cx="286" cy="208" rx="130" ry="112" fill="#3e5748" fill-opacity="0.62"/><ellipse cx="620" cy="194" rx="150" ry="122" fill="#446050" fill-opacity="0.58"/><ellipse cx="1020" cy="180" rx="166" ry="128" fill="#425d4d" fill-opacity="0.54"/><ellipse cx="1350" cy="206" rx="158" ry="124" fill="#395243" fill-opacity="0.58"/>
       <ellipse cx="808" cy="612" rx="832" ry="128" fill="#c3cbbb" fill-opacity="0.08"/>
     </g></svg>