<svg width="1600" height="900" viewBox="0 0 1600 900" fill="none" xmlns="http://www.w3.org/2000/svg">
  <defs>
    <linearGradient id="citrusSky" x1="800" y1="0" x2="800" y2="900" gradientUnits="userSpaceOnUse">
      <stop offset="0" stop-color="#FFF9E8"/>
      <stop offset="0.34" stop-color="#FFE8BF"/>
      <stop offset="0.66" stop-color="#FFD5A7"/>
      <stop offset="1" stop-color="#F7BE9C"/>
    </linearGradient>
    <radialGradient id="citrusSunGlow" cx="0" cy="0" r="1" gradientUnits="userSpaceOnUse" gradientTransform="translate(1216 154) rotate(90) scale(330 470)">
      <stop offset="0" stop-color="#FFFDEA" stop-opacity="0.92"/>
      <stop offset="0.34" stop-color="#FFE98C" stop-opacity="0.46"/>
      <stop offset="0.72" stop-color="#FFD46B" stop-opacity="0.12"/>
      <stop offset="1" stop-color="#FFD46B" stop-opacity="0"/>
    </radialGradient>
    <linearGradient id="courtyardHaze" x1="800" y1="362" x2="800" y2="610" gradientUnits="userSpaceOnUse">
      <stop offset="0" stop-color="#FFF4D7" stop-opacity="0.56"/>
      <stop offset="1" stop-color="#FFF4D7" stop-opacity="0"/>
    </linearGradient>
    <linearGradient id="citrusGarden" x1="800" y1="520" x2="800" y2="900" gradientUnits="userSpaceOnUse">
      <stop offset="0" stop-color="#BFD88A"/>
      <stop offset="0.46" stop-color="#90B770"/>
      <stop offset="1" stop-color="#5C8A5F"/>
    </linearGradient>
  </defs>
  <rect width="1600" height="900" fill="url(#citrusSky)"/>
  <ellipse cx="1216" cy="154" rx="470" ry="330" fill="url(#citrusSunGlow)"/>
  <circle cx="1216" cy="154" r="52" fill="#FFFDF3" fill-opacity="0.88"/>
  <rect x="0" y="362" width="1600" height="248" fill="url(#courtyardHaze)"/>
  <path d="M0 428C132 400 258 394 412 420C562 446 706 462 866 448C1042 432 1200 390 1360 404C1460 412 1538 430 1600 448V602H0V428Z" fill="#F5E7C6" fill-opacity="0.66"/>
  <path d="M0 484C116 462 244 458 374 486C530 520 680 546 854 534C1028 522 1172 486 1334 494C1446 500 1534 518 1600 530V662H0V484Z" fill="#D9D89B" fill-opacity="0.76"/>
  <path d="M0 552C136 532 280 536 430 566C602 600 738 620 902 606C1072 592 1208 558 1374 552C1460 548 1534 554 1600 564V900H0V552Z" fill="url(#citrusGarden)"/>
  <path d="M0 690C132 674 282 690 440 736C610 786 752 804 928 788C1090 774 1220 732 1388 718C1470 712 1542 716 1600 724V900H0V690Z" fill="#4D7552" fill-opacity="0.38"/>
</svg>
