<svg width="1600" height="900" viewBox="0 0 1600 900" fill="none" xmlns="http://www.w3.org/2000/svg">
  <defs>
    <linearGradient id="emberNight" x1="800" y1="0" x2="800" y2="900" gradientUnits="userSpaceOnUse">
      <stop offset="0" stop-color="#100C0E"/>
      <stop offset="0.32" stop-color="#1C1214"/>
      <stop offset="0.60" stop-color="#121020"/>
      <stop offset="1" stop-color="#0C1020"/>
    </linearGradient>
    <radialGradient id="emberCore" cx="0" cy="0" r="1" gradientUnits="userSpaceOnUse" gradientTransform="translate(384 380) rotate(28) scale(780 480)">
      <stop offset="0" stop-color="#F07020" stop-opacity="0.68"/>
      <stop offset="0.30" stop-color="#D05818" stop-opacity="0.38"/>
      <stop offset="0.60" stop-color="#A03C0E" stop-opacity="0.16"/>
      <stop offset="1" stop-color="#A03C0E" stop-opacity="0"/>
    </radialGradient>
    <radialGradient id="emberWash" cx="0" cy="0" r="1" gradientUnits="userSpaceOnUse" gradientTransform="translate(580 500) rotate(90) scale(400 720)">
      <stop offset="0" stop-color="#E86010" stop-opacity="0.20"/>
      <stop offset="0.55" stop-color="#E86010" stop-opacity="0.07"/>
      <stop offset="1" stop-color="#E86010" stop-opacity="0"/>
    </radialGradient>
    <radialGradient id="moonHalo" cx="0" cy="0" r="1" gradientUnits="userSpaceOnUse" gradientTransform="translate(1256 158) rotate(90) scale(156)">
      <stop offset="0" stop-color="#F8EDD6" stop-opacity="0.50"/>
      <stop offset="0.48" stop-color="#F8EDD6" stop-opacity="0.20"/>
      <stop offset="1" stop-color="#F8EDD6" stop-opacity="0"/>
    </radialGradient>
  </defs>
  <rect width="1600" height="900" fill="url(#emberNight)"/>
  <!-- Ember glow fields -->
  <ellipse cx="384" cy="380" rx="780" ry="480" fill="url(#emberCore)"/>
  <ellipse cx="580" cy="500" rx="720" ry="400" fill="url(#emberWash)"/>
  <!-- Moon with halo -->
  <circle cx="1256" cy="158" r="156" fill="url(#moonHalo)"/>
  <circle cx="1256" cy="158" r="48" fill="#F6E8CA" fill-opacity="0.74"/>
  <circle cx="1256" cy="158" r="32" fill="#FAF2DE" fill-opacity="0.84"/>
  <!-- Stars (warm-tinted, 20) -->
  <g fill="#FFF2E6" fill-opacity="0.70">
    <circle cx="172" cy="110" r="1.6"/>
    <circle cx="288" cy="154" r="1.3"/>
    <circle cx="408" cy="86" r="1.5"/>
    <circle cx="564" cy="116" r="1.4"/>
    <circle cx="690" cy="80" r="1.7"/>
    <circle cx="804" cy="126" r="1.2"/>
    <circle cx="928" cy="94" r="1.6"/>
    <circle cx="1052" cy="132" r="1.4"/>
    <circle cx="1122" cy="84" r="1.2"/>
    <circle cx="1372" cy="116" r="1.5"/>
    <circle cx="1466" cy="80" r="1.8"/>
    <circle cx="1548" cy="140" r="1.3"/>
    <circle cx="94" cy="180" r="1.4"/>
    <circle cx="318" cy="206" r="1.2"/>
    <circle cx="500" cy="182" r="1.5"/>
    <circle cx="736" cy="194" r="1.3"/>
    <circle cx="960" cy="216" r="1.6"/>
    <circle cx="1144" cy="190" r="1.2"/>
    <circle cx="1440" cy="206" r="1.4"/>
    <circle cx="1570" cy="176" r="1.6"/>
  </g>
  <!-- Terrain layers -->
  <path d="M0 534C124 502 266 504 396 546C556 598 702 628 864 612C1030 596 1148 542 1292 526C1406 514 1512 534 1600 560V900H0V534Z" fill="#180C10" fill-opacity="0.76"/>
  <path d="M0 638C128 610 270 616 394 664C548 722 688 750 854 736C1016 722 1140 670 1292 656C1400 646 1506 656 1600 684V900H0V638Z" fill="#0E0A12" fill-opacity="0.86"/>
  <path d="M0 752C144 736 298 754 432 798C574 848 718 862 880 850C1046 838 1170 800 1318 790C1418 782 1516 786 1600 800V900H0V752Z" fill="#20182C" fill-opacity="0.36"/>
</svg>
