<svg width="1600" height="900" viewBox="0 0 1600 900" fill="none" xmlns="http://www.w3.org/2000/svg">
  <defs>
    <linearGradient id="loungeDeep" x1="800" y1="0" x2="800" y2="900" gradientUnits="userSpaceOnUse">
      <stop offset="0" stop-color="#090818"/>
      <stop offset="0.38" stop-color="#0E0D20"/>
      <stop offset="0.68" stop-color="#101628"/>
      <stop offset="1" stop-color="#0C1422"/>
    </linearGradient>
    <!-- Nebula A: deep violet/purple, left-centre -->
    <radialGradient id="nebulaA" cx="0" cy="0" r="1" gradientUnits="userSpaceOnUse" gradientTransform="translate(446 220) rotate(26) scale(680 380)">
      <stop offset="0" stop-color="#8842E8" stop-opacity="0.36"/>
      <stop offset="0.38" stop-color="#6030C0" stop-opacity="0.20"/>
      <stop offset="0.68" stop-color="#4020A2" stop-opacity="0.08"/>
      <stop offset="1" stop-color="#4020A2" stop-opacity="0"/>
    </radialGradient>
    <!-- Nebula B: indigo-cyan, right-centre -->
    <radialGradient id="nebulaB" cx="0" cy="0" r="1" gradientUnits="userSpaceOnUse" gradientTransform="translate(1114 230) rotate(154) scale(620 350)">
      <stop offset="0" stop-color="#2888FF" stop-opacity="0.28"/>
      <stop offset="0.38" stop-color="#1060E8" stop-opacity="0.15"/>
      <stop offset="0.68" stop-color="#0848C0" stop-opacity="0.06"/>
      <stop offset="1" stop-color="#0848C0" stop-opacity="0"/>
    </radialGradient>
    <!-- Subtle galaxy band diagonal -->
    <linearGradient id="galaxyBand" x1="0" y1="320" x2="1600" y2="80" gradientUnits="userSpaceOnUse">
      <stop offset="0" stop-color="#C8C0F8" stop-opacity="0"/>
      <stop offset="0.24" stop-color="#C8C0F8" stop-opacity="0.034"/>
      <stop offset="0.50" stop-color="#C8C0F8" stop-opacity="0.058"/>
      <stop offset="0.76" stop-color="#C8C0F8" stop-opacity="0.030"/>
      <stop offset="1" stop-color="#C8C0F8" stop-opacity="0"/>
    </linearGradient>
  </defs>
  <rect width="1600" height="900" fill="url(#loungeDeep)"/>
  <rect width="1600" height="900" fill="url(#galaxyBand)"/>
  <!-- Nebula glows -->
  <ellipse cx="446" cy="220" rx="680" ry="380" fill="url(#nebulaA)"/>
  <ellipse cx="1114" cy="230" rx="620" ry="350" fill="url(#nebulaB)"/>
  <!-- Stars (35, varied size + opacity) -->
  <g fill="#F0F2FF">
    <circle cx="92" cy="74" r="1.8" fill-opacity="0.82"/>
    <circle cx="190" cy="136" r="1.5" fill-opacity="0.76"/>
    <circle cx="290" cy="82" r="2.0" fill-opacity="0.85"/>
    <circle cx="386" cy="110" r="1.4" fill-opacity="0.72"/>
    <circle cx="500" cy="66" r="1.6" fill-opacity="0.80"/>
    <circle cx="604" cy="130" r="1.3" fill-opacity="0.72"/>
    <circle cx="714" cy="76" r="1.8" fill-opacity="0.82"/>
    <circle cx="828" cy="114" r="2.2" fill-opacity="0.88"/>
    <circle cx="940" cy="82" r="1.5" fill-opacity="0.78"/>
    <circle cx="1046" cy="130" r="1.4" fill-opacity="0.72"/>
    <circle cx="1160" cy="74" r="1.8" fill-opacity="0.82"/>
    <circle cx="1270" cy="116" r="1.6" fill-opacity="0.78"/>
    <circle cx="1378" cy="86" r="2.0" fill-opacity="0.86"/>
    <circle cx="1484" cy="126" r="1.4" fill-opacity="0.74"/>
    <circle cx="1568" cy="80" r="1.7" fill-opacity="0.80"/>
    <circle cx="150" cy="196" r="1.5" fill-opacity="0.76"/>
    <circle cx="318" cy="216" r="1.3" fill-opacity="0.70"/>
    <circle cx="486" cy="184" r="1.6" fill-opacity="0.78"/>
    <circle cx="650" cy="210" r="1.4" fill-opacity="0.72"/>
    <circle cx="800" cy="190" r="1.8" fill-opacity="0.82"/>
    <circle cx="966" cy="216" r="1.5" fill-opacity="0.76"/>
    <circle cx="1130" cy="196" r="1.3" fill-opacity="0.70"/>
    <circle cx="1294" cy="210" r="1.6" fill-opacity="0.78"/>
    <circle cx="1454" cy="186" r="1.4" fill-opacity="0.74"/>
    <circle cx="1556" cy="212" r="1.2" fill-opacity="0.66"/>
    <circle cx="64" cy="266" r="1.4" fill-opacity="0.70"/>
    <circle cx="230" cy="282" r="1.2" fill-opacity="0.64"/>
    <circle cx="424" cy="270" r="1.5" fill-opacity="0.74"/>
    <circle cx="618" cy="284" r="1.3" fill-opacity="0.68"/>
    <circle cx="814" cy="272" r="1.6" fill-opacity="0.78"/>
    <circle cx="1008" cy="286" r="1.4" fill-opacity="0.70"/>
    <circle cx="1200" cy="274" r="1.5" fill-opacity="0.74"/>
    <circle cx="1396" cy="282" r="1.2" fill-opacity="0.64"/>
    <circle cx="1558" cy="266" r="1.4" fill-opacity="0.70"/>
    <!-- Brighter foreground star -->
    <circle cx="930" cy="156" r="2.4" fill-opacity="0.90"/>
  </g>
  <!-- Terrain layers -->
  <path d="M0 556C140 520 288 524 440 566C600 612 748 632 920 616C1092 600 1210 548 1360 534C1464 524 1558 536 1600 556V900H0V556Z" fill="#0C1424" fill-opacity="0.78"/>
  <path d="M0 664C150 638 306 656 458 712C618 772 768 792 944 778C1102 766 1226 716 1376 700C1470 688 1558 692 1600 708V900H0V664Z" fill="#070C18" fill-opacity="0.88"/>
</svg>
