<svg width="1600" height="900" viewBox="0 0 1600 900" fill="none" xmlns="http://www.w3.org/2000/svg">
  <defs>
    <linearGradient id="petalSky" x1="800" y1="0" x2="800" y2="900" gradientUnits="userSpaceOnUse">
      <stop offset="0" stop-color="#FFF8F4"/>
      <stop offset="0.26" stop-color="#FDE7E7"/>
      <stop offset="0.54" stop-color="#F7D9E2"/>
      <stop offset="0.78" stop-color="#E7D6E9"/>
      <stop offset="1" stop-color="#D5D9E8"/>
    </linearGradient>
    <radialGradient id="petalGlow" cx="0" cy="0" r="1" gradientUnits="userSpaceOnUse" gradientTransform="translate(344 176) rotate(90) scale(318 462)">
      <stop offset="0" stop-color="#FFF9F1" stop-opacity="0.86"/>
      <stop offset="0.38" stop-color="#FFD9C8" stop-opacity="0.34"/>
      <stop offset="0.76" stop-color="#FFBFAF" stop-opacity="0.10"/>
      <stop offset="1" stop-color="#FFBFAF" stop-opacity="0"/>
    </radialGradient>
    <linearGradient id="petalMist" x1="800" y1="420" x2="800" y2="588" gradientUnits="userSpaceOnUse">
      <stop offset="0" stop-color="#FFF8FA" stop-opacity="0.50"/>
      <stop offset="1" stop-color="#FFF8FA" stop-opacity="0"/>
    </linearGradient>
    <linearGradient id="petalLake" x1="800" y1="520" x2="800" y2="900" gradientUnits="userSpaceOnUse">
      <stop offset="0" stop-color="#AFC7DB"/>
      <stop offset="0.48" stop-color="#87A9C2"/>
      <stop offset="1" stop-color="#5E7D98"/>
    </linearGradient>
  </defs>
  <rect width="1600" height="900" fill="url(#petalSky)"/>
  <ellipse cx="344" cy="176" rx="462" ry="318" fill="url(#petalGlow)"/>
  <circle cx="344" cy="176" r="46" fill="#FFFDF8" fill-opacity="0.84"/>
  <rect x="0" y="420" width="1600" height="168" fill="url(#petalMist)"/>
  <path d="M0 438C142 410 286 404 442 430C606 458 756 482 914 468C1088 454 1234 414 1394 426C1480 432 1548 446 1600 456V600H0V438Z" fill="#E9D7DF" fill-opacity="0.68"/>
  <path d="M0 500C110 478 236 478 366 508C522 544 666 572 836 560C1018 546 1178 504 1340 510C1442 514 1528 528 1600 540V680H0V500Z" fill="#C7D1DD" fill-opacity="0.82"/>
  <path d="M0 560C130 542 270 548 424 578C590 612 734 630 902 616C1078 602 1220 566 1382 560C1466 556 1540 560 1600 568V900H0V560Z" fill="url(#petalLake)"/>
  <path d="M0 704C140 686 290 702 444 748C610 798 758 816 944 798C1096 784 1222 746 1380 728C1472 718 1542 722 1600 730V900H0V704Z" fill="#4F6B83" fill-opacity="0.34"/>
</svg>
