<svg width="1600" height="900" viewBox="0 0 1600 900" fill="none" xmlns="http://www.w3.org/2000/svg">
  <defs>
    <linearGradient id="forestSky" x1="800" y1="0" x2="800" y2="900" gradientUnits="userSpaceOnUse">
      <stop offset="0" stop-color="#1E3C2C"/>
      <stop offset="0.35" stop-color="#162E22"/>
      <stop offset="0.65" stop-color="#10221A"/>
      <stop offset="1" stop-color="#0A1813"/>
    </linearGradient>
    <radialGradient id="canopyLight" cx="0" cy="0" r="1" gradientUnits="userSpaceOnUse" gradientTransform="translate(780 252) rotate(90) scale(322 640)">
      <stop offset="0" stop-color="#D4E8C2" stop-opacity="0.30"/>
      <stop offset="0.45" stop-color="#B8D8A4" stop-opacity="0.14"/>
      <stop offset="1" stop-color="#B8D8A4" stop-opacity="0"/>
    </radialGradient>
    <radialGradient id="canopySide" cx="0" cy="0" r="1" gradientUnits="userSpaceOnUse" gradientTransform="translate(1246 172) rotate(90) scale(246 392)">
      <stop offset="0" stop-color="#E0EED2" stop-opacity="0.16"/>
      <stop offset="1" stop-color="#E0EED2" stop-opacity="0"/>
    </radialGradient>
    <radialGradient id="floorDapple" cx="0" cy="0" r="1" gradientUnits="userSpaceOnUse" gradientTransform="translate(618 682) rotate(90) scale(62 208)">
      <stop offset="0" stop-color="#C0D8A2" stop-opacity="0.12"/>
      <stop offset="1" stop-color="#C0D8A2" stop-opacity="0"/>
    </radialGradient>
  </defs>
  <rect width="1600" height="900" fill="url(#forestSky)"/>
  <ellipse cx="780" cy="252" rx="640" ry="322" fill="url(#canopyLight)"/>
  <ellipse cx="1246" cy="172" rx="392" ry="246" fill="url(#canopySide)"/>
  <!-- Far canopy (lightest, furthest) -->
  <path d="M0 272C68 262 130 304 188 362C248 424 306 472 386 466C452 460 496 408 548 360C602 310 664 278 738 294C812 310 856 368 924 404C988 438 1050 442 1122 422C1200 400 1262 344 1340 330C1410 318 1490 354 1568 420C1580 432 1592 446 1600 456V660H0V272Z" fill="#224E38" fill-opacity="0.44"/>
  <!-- Mid canopy -->
  <path d="M0 366C82 340 150 378 212 448C276 520 338 576 430 576C516 576 580 516 638 444C698 370 764 312 854 326C942 340 1002 410 1070 470C1138 530 1210 560 1296 544C1390 526 1460 456 1536 400C1558 384 1580 372 1600 370V700H0V366Z" fill="#163C2A" fill-opacity="0.60"/>
  <!-- Near canopy -->
  <path d="M0 488C78 450 150 460 214 520C278 580 334 642 416 652C490 662 548 616 606 552C662 490 718 432 802 440C884 448 936 516 1000 576C1064 636 1132 672 1226 666C1328 660 1414 598 1494 518C1528 486 1562 460 1600 452V780H0V488Z" fill="#0E2C1E" fill-opacity="0.76"/>
  <!-- Tree trunk silhouettes -->
  <g fill="#080E0A">
    <path d="M0 0C30 82 44 188 40 314C36 444 20 560 0 642V0Z"/>
    <path d="M112 0C142 110 136 238 114 366C94 480 56 584 30 674C58 618 100 518 124 398C150 272 154 130 138 0H112Z"/>
    <path d="M1600 0V618C1576 564 1556 494 1542 410C1524 302 1530 154 1558 0H1600Z"/>
    <path d="M1482 0C1460 106 1466 212 1492 308C1518 406 1550 494 1578 570C1514 512 1452 420 1424 306C1396 188 1408 76 1436 0H1482Z"/>
  </g>
  <!-- Floor dapple light pools -->
  <ellipse cx="618" cy="682" rx="208" ry="62" fill="url(#floorDapple)"/>
  <ellipse cx="1042" cy="644" rx="232" ry="56" fill="url(#floorDapple)"/>
  <!-- Floor layer -->
  <path d="M0 672C108 640 218 646 328 686C456 730 568 762 692 756C822 750 918 702 1026 666C1142 628 1248 616 1372 642C1454 660 1534 690 1600 724V900H0V672Z" fill="#060E08" fill-opacity="0.90"/>
</svg>
