<svg width="1600" height="900" viewBox="0 0 1600 900" fill="none" xmlns="http://www.w3.org/2000/svg">
  <defs>
    <linearGradient id="bloomSky" x1="800" y1="0" x2="800" y2="900" gradientUnits="userSpaceOnUse">
      <stop offset="0" stop-color="#F7FDFF"/>
      <stop offset="0.30" stop-color="#E5F7FF"/>
      <stop offset="0.58" stop-color="#D7ECF9"/>
      <stop offset="0.82" stop-color="#DDE4F3"/>
      <stop offset="1" stop-color="#E8D8E9"/>
    </linearGradient>
    <radialGradient id="bloomSunGlow" cx="0" cy="0" r="1" gradientUnits="userSpaceOnUse" gradientTransform="translate(1132 128) rotate(90) scale(308 454)">
      <stop offset="0" stop-color="#FFFFFF" stop-opacity="0.90"/>
      <stop offset="0.34" stop-color="#DFF7FF" stop-opacity="0.42"/>
      <stop offset="0.72" stop-color="#B8E8FF" stop-opacity="0.12"/>
      <stop offset="1" stop-color="#B8E8FF" stop-opacity="0"/>
    </radialGradient>
    <radialGradient id="bloomCloud" cx="0" cy="0" r="1" gradientUnits="userSpaceOnUse" gradientTransform="translate(744 266) rotate(90) scale(120 560)">
      <stop offset="0" stop-color="#FFFFFF" stop-opacity="0.54"/>
      <stop offset="1" stop-color="#FFFFFF" stop-opacity="0"/>
    </radialGradient>
    <linearGradient id="bloomField" x1="800" y1="528" x2="800" y2="900" gradientUnits="userSpaceOnUse">
      <stop offset="0" stop-color="#C4D89B"/>
      <stop offset="0.42" stop-color="#96BA8B"/>
      <stop offset="1" stop-color="#5F897C"/>
    </linearGradient>
  </defs>
  <rect width="1600" height="900" fill="url(#bloomSky)"/>
  <ellipse cx="1132" cy="128" rx="454" ry="308" fill="url(#bloomSunGlow)"/>
  <circle cx="1132" cy="128" r="44" fill="#FFFFFF" fill-opacity="0.84"/>
  <ellipse cx="744" cy="266" rx="560" ry="120" fill="url(#bloomCloud)"/>
  <path d="M0 420C124 396 254 390 414 416C592 444 754 466 918 452C1084 438 1238 398 1388 410C1470 418 1542 432 1600 442V590H0V420Z" fill="#DDEBEE" fill-opacity="0.72"/>
  <path d="M0 490C108 470 226 468 352 494C520 528 668 554 842 544C1022 534 1182 500 1344 504C1446 508 1532 520 1600 530V674H0V490Z" fill="#C5DDBE" fill-opacity="0.82"/>
  <path d="M0 560C134 542 278 548 430 578C602 612 748 632 924 618C1098 604 1232 570 1398 564C1470 560 1538 564 1600 572V900H0V560Z" fill="url(#bloomField)"/>
  <path d="M0 700C136 686 286 700 438 742C614 790 768 806 958 790C1110 776 1230 742 1388 726C1478 716 1544 720 1600 728V900H0V700Z" fill="#54786B" fill-opacity="0.30"/>
</svg>
