<svg width="1600" height="900" viewBox="0 0 1600 900" fill="none" xmlns="http://www.w3.org/2000/svg">
  <defs>
    <linearGradient id="slateDusk" x1="800" y1="0" x2="800" y2="900" gradientUnits="userSpaceOnUse">
      <stop offset="0" stop-color="#080F1E"/>
      <stop offset="0.30" stop-color="#0E1C32"/>
      <stop offset="0.58" stop-color="#122640"/>
      <stop offset="0.82" stop-color="#162E46"/>
      <stop offset="1" stop-color="#1A3448"/>
    </linearGradient>
    <!-- Pass atmospheric glow: cool blue-white through the gap -->
    <radialGradient id="passGlow" cx="0" cy="0" r="1" gradientUnits="userSpaceOnUse" gradientTransform="translate(798 352) rotate(90) scale(290 660)">
      <stop offset="0" stop-color="#D4E8FF" stop-opacity="0.24"/>
      <stop offset="0.42" stop-color="#B0CCEE" stop-opacity="0.12"/>
      <stop offset="1" stop-color="#B0CCEE" stop-opacity="0"/>
    </radialGradient>
    <!-- Horizon rim light through pass -->
    <linearGradient id="rimLight" x1="798" y1="440" x2="798" y2="540" gradientUnits="userSpaceOnUse">
      <stop offset="0" stop-color="#5888C8" stop-opacity="0.28"/>
      <stop offset="1" stop-color="#5888C8" stop-opacity="0"/>
    </linearGradient>
  </defs>
  <rect width="1600" height="900" fill="url(#slateDusk)"/>
  <!-- Pass glow -->
  <ellipse cx="798" cy="352" rx="660" ry="290" fill="url(#passGlow)"/>
  <!-- Stars (22) -->
  <g fill="#EAF2FF" fill-opacity="0.68">
    <circle cx="118" cy="86" r="1.6"/>
    <circle cx="238" cy="124" r="1.3"/>
    <circle cx="374" cy="76" r="1.5"/>
    <circle cx="496" cy="106" r="1.4"/>
    <circle cx="620" cy="82" r="1.7"/>
    <circle cx="724" cy="126" r="1.2"/>
    <circle cx="946" cy="94" r="1.6"/>
    <circle cx="1064" cy="136" r="1.4"/>
    <circle cx="1200" cy="80" r="1.3"/>
    <circle cx="1318" cy="116" r="1.6"/>
    <circle cx="1444" cy="86" r="1.8"/>
    <circle cx="1560" cy="126" r="1.3"/>
    <circle cx="70" cy="174" r="1.2"/>
    <circle cx="314" cy="196" r="1.4"/>
    <circle cx="540" cy="176" r="1.2"/>
    <circle cx="810" cy="194" r="1.5"/>
    <circle cx="1034" cy="182" r="1.3"/>
    <circle cx="1258" cy="202" r="1.4"/>
    <circle cx="1492" cy="180" r="1.5"/>
    <circle cx="180" cy="244" r="1.2"/>
    <circle cx="1376" cy="250" r="1.3"/>
    <circle cx="658" cy="236" r="1.4"/>
  </g>
  <!-- Mountains: 4 layers — furthest (lightest) to nearest (darkest) -->
  <!-- Layer 1: distant, gentle undulation -->
  <path d="M0 346C98 302 192 282 312 290C418 298 514 334 630 348C742 362 844 356 962 322C1086 286 1196 260 1324 274C1422 286 1522 328 1600 362V580H0V346Z" fill="#1E3450" fill-opacity="0.52"/>
  <!-- Layer 2: mid distance, more defined -->
  <path d="M0 416C74 378 150 358 252 376C344 394 410 442 504 472C590 500 674 506 766 490C862 474 944 428 1048 406C1152 384 1256 396 1358 440C1432 472 1514 502 1600 518V700H0V416Z" fill="#14283C" fill-opacity="0.70"/>
  <!-- Layer 3: near mountains -->
  <path d="M0 510C60 476 128 460 208 482C298 506 372 554 464 586C554 616 648 628 746 616C852 604 940 560 1044 520C1146 480 1252 462 1362 490C1442 510 1526 550 1600 576V780H0V510Z" fill="#0C1E2E" fill-opacity="0.82"/>
  <!-- Horizon rim light (valley glow) -->
  <path d="M0 616C0 616 400 582 798 592C1200 602 1600 616 1600 616V664H0V616Z" fill="url(#rimLight)"/>
  <!-- Dark valley floor -->
  <rect x="0" y="726" width="1600" height="174" fill="#0A131C" fill-opacity="0.78"/>
</svg>
