<svg width="1600" height="900" viewBox="0 0 1600 900" fill="none" xmlns="http://www.w3.org/2000/svg">
  <defs>
    <linearGradient id="nocturnesky" x1="800" y1="0" x2="800" y2="900" gradientUnits="userSpaceOnUse">
      <stop offset="0" stop-color="#07101E"/>
      <stop offset="0.34" stop-color="#0C1830"/>
      <stop offset="0.64" stop-color="#122438"/>
      <stop offset="1" stop-color="#182E3E"/>
    </linearGradient>
    <radialGradient id="moonHalo" cx="0" cy="0" r="1" gradientUnits="userSpaceOnUse" gradientTransform="translate(1196 164) rotate(90) scale(224)">
      <stop offset="0" stop-color="#F0E8D4" stop-opacity="0.56"/>
      <stop offset="0.45" stop-color="#F0E8D4" stop-opacity="0.22"/>
      <stop offset="0.75" stop-color="#F0E8D4" stop-opacity="0.08"/>
      <stop offset="1" stop-color="#F0E8D4" stop-opacity="0"/>
    </radialGradient>
    <radialGradient id="moonDisc" cx="0" cy="0" r="1" gradientUnits="userSpaceOnUse" gradientTransform="translate(1196 164) rotate(90) scale(58)">
      <stop offset="0" stop-color="#FAF4E8"/>
      <stop offset="0.65" stop-color="#F4ECD8"/>
      <stop offset="1" stop-color="#DED6C0" stop-opacity="0.6"/>
    </radialGradient>
    <!-- Subtle milky-way diagonal band -->
    <linearGradient id="milkyWay" x1="0" y1="420" x2="1600" y2="0" gradientUnits="userSpaceOnUse">
      <stop offset="0" stop-color="#C8D4F8" stop-opacity="0"/>
      <stop offset="0.28" stop-color="#C8D4F8" stop-opacity="0.04"/>
      <stop offset="0.52" stop-color="#C8D4F8" stop-opacity="0.07"/>
      <stop offset="0.76" stop-color="#C8D4F8" stop-opacity="0.03"/>
      <stop offset="1" stop-color="#C8D4F8" stop-opacity="0"/>
    </linearGradient>
  </defs>
  <rect width="1600" height="900" fill="url(#nocturnesky)"/>
  <rect width="1600" height="900" fill="url(#milkyWay)"/>
  <!-- Moon -->
  <circle cx="1196" cy="164" r="224" fill="url(#moonHalo)"/>
  <circle cx="1196" cy="164" r="58" fill="url(#moonDisc)"/>
  <circle cx="1196" cy="164" r="38" fill="#F8F2E6" fill-opacity="0.90"/>
  <!-- Stars (38, varied size + opacity) -->
  <g fill="#F2F6FF">
    <circle cx="108" cy="70" r="2.4" fill-opacity="0.88"/>
    <circle cx="184" cy="134" r="1.8" fill-opacity="0.80"/>
    <circle cx="268" cy="84" r="1.5" fill-opacity="0.72"/>
    <circle cx="366" cy="56" r="2.0" fill-opacity="0.86"/>
    <circle cx="454" cy="116" r="1.6" fill-opacity="0.76"/>
    <circle cx="534" cy="76" r="1.4" fill-opacity="0.70"/>
    <circle cx="628" cy="150" r="2.2" fill-opacity="0.88"/>
    <circle cx="716" cy="88" r="1.6" fill-opacity="0.74"/>
    <circle cx="828" cy="124" r="2.4" fill-opacity="0.90"/>
    <circle cx="942" cy="80" r="1.5" fill-opacity="0.72"/>
    <circle cx="1048" cy="112" r="2.0" fill-opacity="0.84"/>
    <circle cx="1366" cy="80" r="1.5" fill-opacity="0.74"/>
    <circle cx="1454" cy="116" r="2.2" fill-opacity="0.86"/>
    <circle cx="1558" cy="74" r="1.6" fill-opacity="0.78"/>
    <circle cx="150" cy="202" r="1.4" fill-opacity="0.70"/>
    <circle cx="274" cy="236" r="1.8" fill-opacity="0.78"/>
    <circle cx="404" cy="212" r="1.6" fill-opacity="0.74"/>
    <circle cx="530" cy="244" r="1.3" fill-opacity="0.66"/>
    <circle cx="646" cy="216" r="1.8" fill-opacity="0.80"/>
    <circle cx="760" cy="250" r="1.5" fill-opacity="0.74"/>
    <circle cx="874" cy="230" r="1.4" fill-opacity="0.68"/>
    <circle cx="986" cy="256" r="2.0" fill-opacity="0.84"/>
    <circle cx="1108" cy="236" r="1.6" fill-opacity="0.76"/>
    <circle cx="1236" cy="260" r="1.3" fill-opacity="0.66"/>
    <circle cx="1360" cy="238" r="1.8" fill-opacity="0.80"/>
    <circle cx="1478" cy="216" r="1.4" fill-opacity="0.70"/>
    <circle cx="1560" cy="250" r="1.2" fill-opacity="0.64"/>
    <circle cx="82" cy="160" r="1.3" fill-opacity="0.68"/>
    <circle cx="920" cy="172" r="1.5" fill-opacity="0.74"/>
    <circle cx="1556" cy="180" r="1.6" fill-opacity="0.76"/>
    <circle cx="426" cy="176" r="1.2" fill-opacity="0.64"/>
    <circle cx="1398" cy="174" r="1.6" fill-opacity="0.78"/>
    <circle cx="76" cy="286" r="1.4" fill-opacity="0.68"/>
    <circle cx="324" cy="294" r="1.2" fill-opacity="0.63"/>
    <circle cx="570" cy="282" r="1.5" fill-opacity="0.72"/>
    <circle cx="818" cy="296" r="1.3" fill-opacity="0.66"/>
    <circle cx="1066" cy="284" r="1.6" fill-opacity="0.74"/>
    <circle cx="1314" cy="292" r="1.2" fill-opacity="0.63"/>
  </g>
  <!-- Terrain layers -->
  <path d="M0 542C152 504 302 510 454 554C610 602 758 624 922 604C1096 584 1216 532 1366 520C1478 512 1564 526 1600 538V900H0V542Z" fill="#162436" fill-opacity="0.76"/>
  <path d="M0 634C148 608 298 630 450 684C612 742 766 762 938 748C1096 736 1220 684 1370 668C1464 656 1550 662 1600 678V900H0V634Z" fill="#1E3E4E" fill-opacity="0.60"/>
  <path d="M0 730C162 714 304 730 440 776C588 824 736 842 898 830C1070 818 1194 772 1334 762C1440 754 1530 759 1600 772V900H0V730Z" fill="#B2A488" fill-opacity="0.08"/>
</svg>
