<svg width="35" height="33" viewBox="0 0 35 33" fill="none" xmlns="http://www.w3.org/2000/svg">
<path id="Vector" d="M33.777 20.9307C32.4869 25.1043 29.2903 28.7072 25.4051 30.693C21.7182 32.5782 16.2276 33.4516 11.2189 31.2847C4.47047 28.3645 2.31651 23.6332 1.38264 20.7266C0.711195 18.6384 0.350453 16.2346 0.55899 14.066C0.776625 11.8036 1.46277 9.61579 2.56739 7.62788C3.53275 5.89002 4.83436 4.3956 6.33891 3.10004C7.06564 2.47455 7.90609 1.87797 8.75459 1.42801C9.16187 1.21243 9.56879 0.983268 10.0072 0.836647C10.4292 0.695947 11.0104 0.447631 11.4502 0.609576C11.3564 0.576491 10.891 0.860678 10.7955 0.903166C10.7231 0.935207 10.1584 1.25596 10.1388 1.2483C10.3302 1.19397 11.8666 0.535743 11.9439 0.675747C11.9418 0.671568 11.0737 1.07138 11.0695 1.06441C11.1027 1.12466 12.2511 0.761769 12.3704 0.70326C11.214 1.27338 10.0614 1.86439 8.96522 2.54386C8.67271 2.72496 8.40049 2.96317 8.10623 3.13348C9.17131 2.49754 11.9145 1.01496 12.2021 0.887146C12.2325 0.873564 12.271 1.03063 12.2672 1.03377C12.1969 1.09158 12.1094 1.13476 12.0317 1.18143C11.8764 1.27338 11.7217 1.37542 11.5597 1.45691C11.6692 1.40258 12.2088 1.08078 12.3508 1.20964C12.3393 1.19919 11.2826 1.87623 11.2025 1.92359C10.8025 2.15728 10.405 2.41361 9.99287 2.62396C10.7157 2.25549 12.4064 1.42766 12.5286 1.38552C12.5954 1.36218 12.9995 1.47258 13.0055 1.49035C13.044 1.60319 10.4029 2.90606 10.1416 3.06382C9.23044 3.61339 8.37915 4.25908 7.59678 4.9779C6.03065 6.4173 4.77628 8.1858 3.96592 10.1497C2.2042 14.4191 2.62022 19.2726 4.90959 23.2575C5.97047 25.1043 7.49636 26.7422 9.26473 27.9364C10.1633 28.5424 11.1139 29.0715 12.1136 29.4929C13.1692 29.9369 14.2693 30.157 15.3862 30.383C17.6293 30.8361 19.9642 30.6087 22.1374 29.9526C23.2266 29.6238 24.2826 29.1648 25.2791 28.6201C26.2308 28.0998 27.0384 27.4597 27.8855 26.7924C29.5433 25.4853 30.7644 23.4946 31.6479 21.6102C32.1171 20.6106 32.3683 19.546 32.6475 18.4848C32.9138 17.4731 33.0076 16.2977 32.9558 15.2556C32.8477 13.0044 32.3403 10.8859 31.3638 8.84856C30.8991 7.87968 30.2906 6.97627 29.6199 6.13729C29.0489 5.42264 28.5464 4.85949 27.8774 4.25281C27.7326 4.12116 27.5716 4.00241 27.4344 3.8631C27.4901 3.81225 27.7084 4.02678 27.7819 4.06091C27.5146 3.76698 27.1573 3.53433 26.8407 3.29647C26.6808 3.17596 25.8116 2.74481 25.819 2.57799C26.6906 3.04745 27.5048 3.69314 28.2452 4.3451C28.637 4.69024 29.6902 5.82385 29.8533 6.01574C29.9236 6.09828 29.9936 6.21704 30.0975 6.26301C29.9526 5.90012 29.5391 5.52225 29.284 5.22726C28.9344 4.82188 28.5622 4.43356 28.1612 4.07798C27.8095 3.76628 27.4372 3.47861 27.0569 3.20243C26.7249 2.96143 26.2647 2.74516 25.9827 2.45958C26.108 2.38052 26.8641 2.9569 26.9922 3.04049C27.3918 3.30064 27.7647 3.60782 28.1255 3.91812C28.4911 4.23366 29.6899 5.60862 30.0048 5.83116C29.925 5.57066 29.5996 5.34289 29.439 5.14995C29.3277 5.01761 28.3984 4.21415 28.4428 4.08982C28.5524 4.0435 28.9813 4.53177 29.0622 4.60909C29.1234 4.6669 29.3382 4.91487 29.4061 4.89571C29.306 4.83198 29.2294 4.67387 29.1451 4.5875C28.9824 4.41824 28.8046 4.26326 28.6601 4.07798C28.8022 4.04768 29.1794 4.47779 29.2868 4.57949C29.5457 4.82293 31.0531 6.53849 31.1612 6.768C31.2375 6.68303 30.5601 5.8848 30.4834 5.78624C30.3872 5.66539 29.5205 4.69232 29.5555 4.65506C29.5975 4.69616 30.2329 5.35787 30.2298 5.35961C30.2752 5.33697 30.0877 5.23075 30.1871 5.19488C30.468 5.49787 30.798 5.84614 31.0072 6.20172C31.0377 6.25291 31.1685 6.3069 31.2277 6.3863C31.2917 6.47267 31.4712 6.84427 31.5846 6.8488C31.6108 6.65691 30.8106 5.85937 30.9166 5.773C31.7696 6.73248 32.4026 7.97406 32.9257 9.13518C33.4754 10.3573 34.1416 11.8597 34.3827 14.5285C34.6227 16.95 34.5289 18.3444 33.777 20.9307C33.7606 20.9077 33.6489 21.3458 33.777 20.9307ZM31.6192 6.91428C31.6279 6.92612 31.6675 6.9505 31.665 6.9592C31.6692 6.9491 31.6108 6.83801 31.587 6.8596C31.5741 6.87283 31.6122 6.91184 31.6192 6.91428C31.6272 6.92577 31.6069 6.9101 31.6192 6.91428ZM6.80567 28.5379C6.80707 28.5268 6.80707 28.5275 6.80567 28.5379V28.5379ZM11.9981 23.1669C12.0237 23.1634 12.4628 23.0548 12.3256 23.0102C12.2287 22.9785 12.0415 22.9632 11.9362 22.9632C11.6629 22.9618 11.4033 22.9134 11.1335 22.9022C11.2109 22.843 11.3074 22.8695 11.3921 22.8368C11.3886 22.6497 9.99846 22.7591 9.86516 22.7002C9.95333 22.5825 10.1325 22.6348 10.2451 22.5526C10.2063 22.5226 10.1622 22.5049 10.1136 22.4989C10.1262 22.4742 10.3445 22.3683 10.1885 22.3558C9.97152 22.3366 9.75179 22.3655 9.54395 22.2973C10.171 22.1559 10.8333 22.1374 11.4729 22.0901C12.0712 22.0455 12.75 22.0664 13.3305 21.9121C12.9222 21.9076 12.5146 21.903 12.1066 21.8982C12.2392 21.7683 12.5349 21.7993 12.7039 21.7784C12.9638 21.747 17.5132 21.4245 18.6514 21.3782C19.1983 21.3563 19.7385 21.2762 20.2868 21.2716C20.9096 21.2661 23.2707 21.2291 23.8291 21.2298C24.1073 21.2305 24.9239 21.2389 24.926 20.9742C24.9481 18.591 24.9183 13.266 24.9156 12.986C24.9135 12.7857 24.5321 12.5893 24.3925 12.4768C23.9075 12.0878 18.4215 7.75883 18.2042 7.57807C18.1181 7.50633 18.0268 7.43772 17.9432 7.36285C17.8354 7.26498 17.7028 7.45653 17.6307 7.51991C16.7896 8.25372 13.2262 11.1367 12.2483 11.8001C11.7994 12.1038 10.4505 12.9177 10.2234 13.0024C9.89979 13.1225 9.93933 12.8505 9.80217 12.6471C9.7035 12.5005 9.60973 12.2588 9.5478 12.0944C9.46767 11.882 9.63807 11.6229 9.76124 11.4627C10.1066 11.0099 10.5321 10.6341 10.9614 10.2625C11.806 9.53151 17.6864 4.50565 17.8921 4.40326C17.9726 4.36286 18.1843 4.60456 18.2343 4.64879C19.819 6.04848 21.4754 7.36563 23.1318 8.67825C24.037 9.39499 26.3907 11.3418 26.4586 11.3989C26.6195 11.5327 26.9365 11.703 27.0335 11.8875C27.1115 12.0356 27.0552 12.3605 27.0559 12.5249C27.0573 12.8418 27.1419 21.2824 27.1517 21.8306C27.1538 21.9703 27.2773 23.1906 27.2487 23.1944C27.1419 23.2097 27.2392 23.4539 27.1017 23.433C26.9355 23.4131 26.8519 23.5413 26.6993 23.5068C26.1437 23.3807 25.5464 23.4351 24.981 23.4354C22.7098 23.4379 15.9124 23.4194 14.7857 23.3759C14.2193 23.3543 13.6531 23.317 13.0884 23.2697C12.4957 23.2209 11.9019 23.2637 11.3092 23.2223C11.3536 23.1892 11.8169 23.1895 11.9981 23.1669ZM26.3305 2.37704C26.3302 2.39236 26.3288 2.40803 26.3288 2.42371C26.257 2.39793 25.5219 1.94867 25.1969 1.80031C25.1517 1.77976 25.1076 1.74563 25.0489 1.76687C25.0331 1.77175 24.734 1.66518 24.7203 1.64324C24.664 1.54955 24.5548 1.52343 24.4666 1.49C24.2252 1.39806 24.0076 1.2692 23.7605 1.1682C23.8207 1.1588 23.8641 1.18108 23.9086 1.19815C24.7137 1.51264 25.5027 1.85916 26.2406 2.31156C26.2721 2.33037 26.3064 2.34709 26.3305 2.37704ZM27.2938 2.58983C27.4194 2.61804 27.5205 2.68909 27.6192 2.76222C27.9337 2.99765 28.742 3.66563 28.8414 3.75026C28.8624 3.76802 28.904 3.79031 28.8778 3.81991C28.8508 3.84917 28.8246 3.80946 28.805 3.7917C28.4883 3.49916 27.4659 2.71521 27.2938 2.58983ZM28.8011 3.25641C29.0643 3.46085 29.3078 3.68618 29.5485 3.91569C29.6916 4.05186 29.8288 4.19535 29.9673 4.33674C29.996 4.366 30.0289 4.39142 30.0461 4.42973C30.0394 4.43635 30.0338 4.44227 30.0282 4.44923C29.8515 4.27789 29.0244 3.49219 28.7868 3.27069C28.7917 3.26617 28.7969 3.26094 28.8011 3.25641ZM29.5016 3.46607C29.5205 3.47896 29.5398 3.4901 29.5559 3.50473C29.9145 3.82514 30.241 4.17549 30.565 4.53003C30.5818 4.54745 30.6017 4.56521 30.6017 4.59342C30.5688 4.60282 30.5573 4.58123 30.5433 4.5666C30.207 4.2037 29.4911 3.48975 29.4848 3.48035C29.4908 3.47548 29.496 3.47025 29.5016 3.46607ZM31.39 5.58598C31.221 5.37702 30.7336 4.78427 30.6587 4.69546C30.6377 4.67178 30.6087 4.65227 30.6048 4.59481C30.6927 4.66063 30.755 4.7268 30.8127 4.79715C30.9771 4.99985 31.3956 5.49613 31.4194 5.55742C31.4096 5.56717 31.3998 5.57658 31.39 5.58598ZM25.1545 1.54572C25.4124 1.63035 25.6493 1.75782 25.8792 1.89573C25.876 1.90235 25.8725 1.90896 25.8687 1.91558C25.6307 1.7923 25.3932 1.66901 25.1545 1.54572ZM30.0758 4.37854C30.0825 4.36983 30.0891 4.36008 30.0957 4.35067L30.0758 4.37854ZM29.7588 4.01668C29.7518 4.024 29.7452 4.03201 29.7389 4.03967L29.7588 4.01668ZM30.0807 4.3357C29.9932 4.22356 29.8963 4.12186 29.7808 4.03758C29.7731 4.03061 29.4922 3.75897 29.4845 3.75305C29.4845 3.75305 29.4845 3.75305 29.4841 3.75339C29.4778 3.74573 29.4694 3.73598 29.4614 3.74503C29.4523 3.75409 29.4624 3.7614 29.4715 3.76593C29.4789 3.77394 29.7539 4.05499 29.7609 4.06231C29.8585 4.16052 29.9558 4.25769 30.0527 4.3559C30.0608 4.36321 30.6258 4.98557 30.6258 4.98557C30.6395 4.99845 30.6538 5.01169 30.6671 5.02492C30.6731 5.00995 30.6829 4.99915 30.6986 4.99323C30.5303 4.77904 30.3393 4.58471 30.1419 4.39664C30.1419 4.39664 30.0874 4.33883 30.0807 4.3357Z" fill="#81BC00"/>
</svg>
