<?xml version="1.0" encoding="UTF-8" standalone="no"?>
<svg
   width="1000"
   height="1000"
   viewBox="0 0 1000 1000"
   version="1.1"
   id="svg37"
   sodipodi:docname="smartthings_for_pc.svg"
   inkscape:version="1.2 (dc2aedaf03, 2022-05-15)"
   xmlns:inkscape="http://www.inkscape.org/namespaces/inkscape"
   xmlns:sodipodi="http://sodipodi.sourceforge.net/DTD/sodipodi-0.dtd"
   xmlns:xlink="http://www.w3.org/1999/xlink"
   xmlns="http://www.w3.org/2000/svg"
   xmlns:svg="http://www.w3.org/2000/svg">
  <sodipodi:namedview
     id="namedview39"
     pagecolor="#ffffff"
     bordercolor="#000000"
     borderopacity="0.25"
     inkscape:showpageshadow="2"
     inkscape:pageopacity="0.0"
     inkscape:pagecheckerboard="0"
     inkscape:deskcolor="#d1d1d1"
     showgrid="false"
     inkscape:zoom="1.0889444"
     inkscape:cx="354.01255"
     inkscape:cy="688.74037"
     inkscape:window-width="2560"
     inkscape:window-height="1506"
     inkscape:window-x="-11"
     inkscape:window-y="-11"
     inkscape:window-maximized="1"
     inkscape:current-layer="svg37" />
  <title
     id="title9">Asset/appname</title>
  <defs
     id="defs22">
    <linearGradient
       x1="24.999912"
       y1="0"
       x2="24.999912"
       y2="49.999825"
       id="linearGradient-1"
       gradientUnits="userSpaceOnUse">
      <stop
         stop-color="#148CF5"
         offset="0%"
         id="stop11" />
      <stop
         stop-color="#1C6FFF"
         offset="99.9508304%"
         id="stop13" />
    </linearGradient>
    <linearGradient
       x1="24.999912"
       y1="0"
       x2="24.999912"
       y2="49.999825"
       id="linearGradient-2"
       gradientUnits="userSpaceOnUse">
      <stop
         stop-color="#20AFFF"
         offset="0%"
         id="stop16" />
      <stop
         stop-color="#115CFF"
         offset="100%"
         id="stop18" />
    </linearGradient>
    <path
       d="M 44.142902,5.5555363 C 39.557154,0.93749675 32.683567,0 24.999913,0 17.315912,0 10.442325,0.93749675 5.8565769,5.5555363 2.2017285,9.236079 0,15.254808 0,24.999913 c 0,9.745105 2.2020757,15.763834 5.8572713,19.444724 4.5857477,4.617345 11.4589877,5.555189 19.1426417,5.555189 7.68296,0 14.556547,-0.937844 19.142295,-5.555189 3.655543,-3.68089 5.857618,-9.699619 5.857618,-19.444724 0,-9.745105 -2.201728,-15.7634867 -5.856924,-19.4443767 z"
       id="path-3" />
  </defs>
  <g
     id="Asset/appname"
     stroke="none"
     stroke-width="1"
     fill="none"
     fill-rule="evenodd"
     transform="scale(20.000069)">
    <g
       id="Group">
      <g
         id="Container">
        <mask
           id="mask-4"
           fill="#ffffff">
          <use
             xlink:href="#path-3"
             id="use24" />
        </mask>
        <g
           id="container">
          <use
             fill="url(#linearGradient-1)"
             xlink:href="#path-3"
             id="use27"
             style="fill:url(#linearGradient-1)" />
          <use
             fill="url(#linearGradient-2)"
             xlink:href="#path-3"
             id="use29"
             style="fill:url(#linearGradient-2)" />
        </g>
      </g>
      <g
         id="smartthings-Copy"
         transform="translate(7.638194,7.986111)"
         fill="#ffffff"
         fill-rule="nonzero">
        <path
           d="m 30.165972,9.1145833 c -2.481944,0 -4.497222,1.9902777 -4.551389,4.4645837 l -2.461111,0.796527 c -0.877778,-1.60625 -2.40625,-2.8 -4.228472,-3.24375 V 8.8520833 C 20.670833,8.2125 21.91875,6.5375 21.91875,4.5666667 21.91875,2.0444444 19.878472,0 17.3625,0 14.845833,0 12.805556,2.0444444 12.805556,4.5666667 12.805556,6.5381944 14.054167,8.2125 15.8,8.8520833 V 11.130556 C 14.044444,11.557639 12.567361,12.683333 11.675694,14.2 L 9.0979167,13.369444 C 8.9375,10.993056 6.96875,9.1138889 4.5569444,9.1138889 2.0402778,9.1138889 0,11.158333 0,13.680556 c 0,2.522222 2.0402778,4.566666 4.5569444,4.566666 1.5104167,0 2.8458334,-0.739583 3.675,-1.874305 l 2.5493056,0.821527 c -0.0056,0.113195 -0.01667,0.224306 -0.01667,0.338889 0,1.620139 0.586806,3.102084 1.555556,4.250695 l -1.631945,2.227778 c -0.377777,-0.101389 -0.7729162,-0.160417 -1.1833329,-0.160417 -2.5166667,0 -4.5569444,2.04375 -4.5569444,4.566667 0,2.522222 2.0402777,4.566666 4.5569444,4.566666 2.5166669,0 4.5569449,-2.044444 4.5569449,-4.566666 0,-0.969445 -0.303473,-1.866667 -0.818056,-2.606945 l 1.598611,-2.18125 c 0.776389,0.322222 1.626389,0.502083 2.519445,0.502083 0.836111,0 1.634027,-0.161805 2.370138,-0.446527 l 1.564584,2.1375 c -0.509028,0.738194 -0.809722,1.63125 -0.809722,2.595833 0,2.522222 2.040277,4.566667 4.556944,4.566667 2.516667,0 4.556944,-2.044445 4.556944,-4.566667 0,-2.522917 -2.040277,-4.566667 -4.556944,-4.566667 -0.415278,0 -0.814583,0.06042 -1.197222,0.164584 L 22.298611,21.9 c 1.029861,-1.163889 1.661111,-2.689583 1.661111,-4.365972 0,-0.04444 -0.0062,-0.08819 -0.0069,-0.132639 l 2.663194,-0.861806 c 0.835417,1.040973 2.114584,1.708334 3.550695,1.708334 2.516666,0 4.556944,-2.044445 4.556944,-4.566667 -6.94e-4,-2.522222 -2.040278,-4.5666667 -4.557639,-4.5666667 z M 4.5576389,15.604861 c -1.04375,0 -1.8986111,-0.85625 -1.8986111,-1.923611 0,-1.066667 0.8541666,-1.923611 1.8986111,-1.923611 1.0444444,0 1.8986111,0.856944 1.8986111,1.923611 -6.944e-4,1.066667 -0.8548611,1.923611 -1.8986111,1.923611 z M 17.3625,2.64375 c 1.04375,0 1.898611,0.8569444 1.898611,1.9236111 0,1.0666667 -0.854167,1.9236111 -1.898611,1.9236111 -1.044444,0 -1.898611,-0.85625 -1.898611,-1.9236111 C 15.464583,3.5006944 16.31875,2.64375 17.3625,2.64375 Z M 9.5055556,30.342361 c -1.04375,0 -1.8986112,-0.856944 -1.8986112,-1.923611 0,-1.066667 0.8541667,-1.923611 1.8986112,-1.923611 1.0444444,0 1.8986114,0.85625 1.8986114,1.923611 -6.95e-4,1.066667 -0.854861,1.923611 -1.8986114,1.923611 z M 13.843056,17.534722 c 0,-1.947222 1.577083,-3.523611 3.51875,-3.523611 1.942361,0 3.518055,1.576389 3.518055,3.523611 0,1.947917 -1.576389,3.523611 -3.518055,3.523611 -1.941667,0 -3.51875,-1.575694 -3.51875,-3.523611 z m 13.098611,10.884722 c 0,1.065973 -0.854167,1.923612 -1.897917,1.923612 -1.04375,0 -1.897917,-0.856945 -1.897917,-1.923612 0,-1.066666 0.854167,-1.923611 1.897917,-1.923611 1.04375,0 1.897917,0.856945 1.897917,1.923611 z m 3.224305,-12.814583 c -1.04375,0 -1.897916,-0.85625 -1.897916,-1.923611 0,-1.066667 0.854166,-1.923611 1.897916,-1.923611 1.04375,0 1.897917,0.856944 1.897917,1.923611 6.94e-4,1.066667 -0.854167,1.923611 -1.897917,1.923611 z"
           id="Shape" />
      </g>
    </g>
  </g>
</svg>
