<svg width="1600" height="900" viewBox="0 0 1600 900" fill="none" xmlns="http://www.w3.org/2000/svg"><defs><linearGradient id="g" x1="0" y1="0" x2="1600" y2="900" gradientUnits="userSpaceOnUse"><stop offset="0%" stop-color="#141b25"/><stop offset="46%" stop-color="#1a2734"/><stop offset="100%" stop-color="#21303d"/></linearGradient><radialGradient id="gl" cx="0" cy="0" r="1" gradientUnits="userSpaceOnUse" gradientTransform="translate(1220 182) rotate(138) scale(420 256)"><stop offset="0%" stop-color="#5f82ae" stop-opacity="0.10"/><stop offset="100%" stop-color="#5f82ae" stop-opacity="0"/></radialGradient><pattern id="grid" width="88" height="88" patternUnits="userSpaceOnUse"><path d="M88 0H0V88" stroke="#6b8094" stroke-opacity="0.08" stroke-width="1"/><circle cx="0" cy="0" r="1.5" fill="#6b8094" fill-opacity="0.08"/></pattern></defs><rect width="1600" height="900" fill="url(#g)"/><rect width="1600" height="900" fill="url(#gl)"/><rect width="1600" height="900" fill="url(#grid)"/><path d="M0 620C226 574 430 560 644 574C842 586 1040 620 1254 626C1378 630 1494 624 1600 606V666C1490 684 1370 694 1244 692C1034 688 838 652 640 640C428 628 220 642 0 692V620Z" fill="white" fill-opacity="0.016"/></svg>